<svg width="230" height="230" viewBox="0 0 230 230" fill="none" xmlns="http://www.w3.org/2000/svg">
<circle cx="115" cy="115" r="112.5" stroke="white" stroke-width="5"/>
<path d="M59 152.215L112.653 173V165.625L59 145.175V152.215Z" fill="white"/>
<path d="M112.653 173L171 103.269V96.5645L112.653 165.625V173Z" fill="white"/>
<path d="M59 103.269L171 56M59 103.269L112.653 121.037M59 103.269V145.175M171 56L112.653 121.037M171 56V96.5645M112.653 121.037V165.625M112.653 173L59 152.215V145.175M112.653 173L171 103.269V96.5645M112.653 173V165.625M59 145.175L112.653 165.625M112.653 165.625L171 96.5645" stroke="#D2D2D2" stroke-width="2"/>
</svg>
