<svg width="114" height="121" viewBox="0 0 114 121" fill="none" xmlns="http://www.w3.org/2000/svg">
<path d="M1 98.2149L54.6527 119V111.625L1 91.1748V98.2149Z" fill="#383838"/>
<path d="M54.6527 119L113 49.2693V42.5645L54.6527 111.625V119Z" fill="#383838"/>
<path d="M1 49.2693L113 2M1 49.2693L54.6527 67.0372M1 49.2693V91.1748M113 2L54.6527 67.0372M113 2V42.5645M54.6527 67.0372V111.625M54.6527 119L1 98.2149V91.1748M54.6527 119L113 49.2693V42.5645M54.6527 119V111.625M1 91.1748L54.6527 111.625M54.6527 111.625L113 42.5645" stroke="black" stroke-width="2"/>
</svg>
